# xmcd CD database file
#
# Track frame offsets:
#	150
#	30385
#	80151
#	88021
#	111174
#	143750
#	179269
#	206053
#
# Disc length: 3386 seconds
#
# Revision: 0
# Processed by: cddbd v1.5PL3 Copyright (c) Steve Scherf et al.
# Submitted via: CDex 1.51
#
DISCID=680d3808
DTITLE=Ed Sarath - New Beginnings
DYEAR=2004
DGENRE=Jazz
TTITLE0=Shirodara
TTITLE1=Child of Light
TTITLE2=Suite for Jazz Orchestra - Proclamation
TTITLE3=Suite for Jazz Orchestra - Meditation
TTITLE4=Suite for Jazz Orchestra - New Beginnings
TTITLE5=Crystal Place
TTITLE6=Space Race
TTITLE7=Voice of the Wind
EXTD=YEAR: 2004
EXTT0=
EXTT1=
EXTT2=
EXTT3=
EXTT4=
EXTT5=
EXTT6=
EXTT7=
PLAYORDER=
